<?xml version="1.0" encoding="utf-8"?>
<svg viewBox="210.6291 190.2463 140.0619 55.9529" xmlns="http://www.w3.org/2000/svg">
  <defs>
    <path id="text-path-0" d="M 94.76725922151468 173.93186232527205 Q 189.86018574795034 146.16614285311078 280.16351402058876 186.89631568136588"/>
  </defs>
  <path d="M 155.71 163.14 Q 154.45 163.2 153.78 162.92 Q 153.12 162.64 152.85 161.93 Q 152.59 161.23 152.52 160.03 L 151.93 149.09 Q 151.87 147.87 152.05 147.14 Q 152.24 146.42 152.88 146.07 Q 153.51 145.72 154.77 145.66 L 158.12 145.48 Q 161.04 145.32 162.67 146.31 Q 164.3 147.29 164.41 149.24 Q 164.46 150.21 164.07 151.02 Q 163.67 151.84 162.99 152.44 Q 162.3 153.04 161.48 153.36 L 161.48 153.41 Q 162.56 153.5 163.46 154.01 Q 164.35 154.52 164.92 155.37 Q 165.48 156.23 165.54 157.37 Q 165.64 159.08 164.88 160.29 Q 164.12 161.5 162.7 162.17 Q 161.29 162.83 159.41 162.94 Z M 156.4 158.66 Q 156.44 159.48 156.75 159.82 Q 157.06 160.15 157.87 160.11 L 158.8 160.06 Q 160.03 159.99 160.74 159.32 Q 161.46 158.64 161.4 157.55 Q 161.34 156.5 160.58 155.94 Q 159.81 155.38 158.66 155.45 L 158.67 155.45 Q 158.38 155.46 158.22 155.38 Q 157.9 155.19 157.55 154.94 Q 157.2 154.68 156.79 154.31 Q 156.66 154.16 156.65 154.09 Q 156.65 153.99 156.76 153.85 Q 157.13 153.44 157.45 153.14 Q 157.77 152.84 158.08 152.63 Q 158.24 152.53 158.51 152.52 L 158.5 152.52 Q 159.22 152.48 159.79 151.91 Q 160.37 151.34 160.3 150.2 Q 160.24 149.04 159.58 148.69 Q 158.91 148.34 157.9 148.4 L 157.24 148.43 Q 156.43 148.48 156.16 148.83 Q 155.89 149.19 155.93 150.02 Z M 169.77 162.03 Q 169.78 162.4 169.62 162.54 Q 169.47 162.68 169.1 162.68 L 166.5 162.69 Q 166.14 162.69 165.99 162.55 Q 165.83 162.41 165.83 162.04 L 165.8 147.14 Q 165.79 146.78 165.92 146.6 Q 166.46 145.79 167.45 144.9 Q 167.63 144.75 167.77 144.75 Q 167.91 144.75 168.07 144.9 Q 168.61 145.36 168.98 145.78 Q 169.35 146.2 169.61 146.59 Q 169.74 146.79 169.74 147.13 L 169.75 152.19 L 170.03 152.19 Q 171.56 152.19 172.51 151.77 Q 173.46 151.34 173.97 150.63 Q 174.48 149.91 174.67 149.03 Q 174.86 148.15 174.85 147.24 L 174.85 147.11 Q 174.85 146.76 174.97 146.58 Q 175.52 145.77 176.51 144.88 Q 176.69 144.73 176.82 144.73 Q 176.97 144.73 177.13 144.88 Q 177.67 145.34 178.04 145.76 Q 178.4 146.18 178.67 146.57 Q 178.8 146.76 178.8 147.11 L 178.8 147.23 Q 178.8 148.22 178.61 149.27 Q 178.41 150.33 177.92 151.27 Q 177.43 152.21 176.53 152.88 Q 175.64 153.55 174.22 153.76 L 174.22 153.84 Q 175.49 154.24 176.49 155.17 Q 177.49 156.11 178.22 157.3 Q 178.95 158.49 179.41 159.7 Q 179.88 160.91 180.08 161.86 Q 180.18 162.31 180.08 162.48 Q 179.98 162.65 179.61 162.66 L 176.62 162.66 Q 176 162.66 175.89 162.09 Q 175.7 161.16 175.17 160 Q 174.64 158.83 173.84 157.75 Q 173.05 156.67 172.07 155.96 Q 171.1 155.25 170.04 155.26 L 169.76 155.26 Z M 189.29 146.72 Q 189.91 147.7 190.53 149.22 Q 191.15 150.73 191.72 152.54 Q 192.28 154.34 192.71 156.21 Q 193.15 158.09 193.4 159.81 Q 193.65 161.54 193.63 162.87 Q 193.6 163.52 193.01 163.49 L 190.06 163.33 Q 189.48 163.3 189.49 162.72 Q 189.51 161.36 189.23 159.38 L 182.57 159.03 Q 182.13 160.92 182.01 162.33 Q 181.95 162.9 181.35 162.87 L 178.46 162.71 Q 178.24 162.7 178.11 162.57 Q 177.97 162.43 177.99 162.11 Q 178.13 160.76 178.55 159.06 Q 178.98 157.35 179.62 155.53 Q 180.25 153.7 181 151.96 Q 181.76 150.22 182.54 148.79 Q 183.33 147.35 184.05 146.45 Q 184.43 145.96 184.83 145.75 Q 185.24 145.54 185.83 145.57 L 187.58 145.67 Q 188.18 145.7 188.57 145.95 Q 188.96 146.21 189.29 146.72 Z M 186.38 149.47 Q 185.51 150.7 184.74 152.45 Q 183.98 154.19 183.39 156.04 L 188.68 156.32 Q 188.27 154.42 187.69 152.6 Q 187.12 150.79 186.45 149.47 Z M 197.76 163.42 Q 197.72 163.78 197.56 163.91 Q 197.39 164.03 197.03 164 L 194.44 163.76 Q 194.07 163.73 193.93 163.57 Q 193.8 163.42 193.83 163.05 L 195.2 148.21 Q 195.23 147.86 195.37 147.69 Q 195.99 146.94 197.06 146.14 Q 197.26 146.01 197.39 146.03 Q 197.54 146.04 197.68 146.2 Q 198.17 146.71 198.5 147.16 Q 198.82 147.62 199.06 148.03 Q 199.16 148.24 199.13 148.58 Z M 196.27 168.06 L 196.56 165.52 L 206.87 166.71 L 206.57 169.25 Z M 209.37 164.63 Q 208.64 162.96 208.01 160.92 Q 207.38 158.89 206.94 156.78 Q 206.51 154.67 206.35 152.75 Q 206.19 150.83 206.42 149.37 Q 206.46 149.05 206.63 148.89 Q 206.96 148.55 207.43 148.2 Q 207.9 147.84 208.53 147.47 Q 208.73 147.35 208.89 147.38 Q 209.04 147.4 209.18 147.57 Q 209.67 148.12 210.01 148.6 Q 210.34 149.07 210.56 149.5 Q 210.66 149.71 210.61 150.06 L 210.62 150.01 Q 210.46 151.03 210.52 152.52 Q 210.58 154 210.83 155.67 Q 211.08 157.33 211.5 158.92 Q 211.91 160.51 212.47 161.74 L 212.55 161.75 Q 213.53 160.76 214.41 159.39 Q 215.3 158.01 216.02 156.51 Q 216.75 155 217.23 153.6 Q 217.71 152.2 217.88 151.15 L 217.87 151.18 Q 217.92 150.83 218.07 150.67 Q 218.78 149.97 219.93 149.24 Q 220.14 149.13 220.29 149.15 Q 220.42 149.17 220.58 149.34 Q 221.05 149.89 221.37 150.36 Q 221.69 150.84 221.91 151.27 Q 222 151.48 221.95 151.8 Q 221.78 152.9 221.25 154.3 Q 220.71 155.69 219.93 157.21 Q 219.15 158.73 218.23 160.23 Q 217.31 161.73 216.33 163.07 Q 215.36 164.41 214.44 165.41 Q 213.66 166.27 212.58 166.1 L 210.91 165.84 Q 209.82 165.67 209.37 164.63 Z M 206.42 149.36 L 206.42 149.37 L 206.41 149.4 Z M 221.95 151.78 L 221.95 151.82 L 221.95 151.8 Z M 221.98 167.19 Q 221.9 167.55 221.74 167.66 Q 221.57 167.76 221.22 167.69 L 218.82 167.17 Q 218.49 167.1 218.38 166.93 Q 218.26 166.77 218.34 166.41 L 221.59 151.29 Q 221.74 150.58 222.09 150.31 Q 222.43 150.04 223.12 150.19 L 224.23 150.43 Q 224.84 150.56 225.35 150.84 Q 225.86 151.12 226.35 151.81 Q 226.85 152.5 227.41 153.86 Q 227.98 155.21 228.7 157.48 Q 229.39 159.66 229.82 160.96 Q 230.24 162.26 230.48 162.95 Q 230.72 163.64 230.85 163.94 Q 230.98 164.24 231.06 164.44 L 233.23 154.36 Q 233.3 154.02 233.45 153.86 Q 234.13 153.18 235.23 152.51 Q 235.43 152.4 235.55 152.43 Q 235.69 152.46 235.81 152.63 Q 236.2 153.19 236.45 153.68 Q 236.7 154.16 236.87 154.6 Q 236.94 154.81 236.87 155.15 L 233.81 169.36 Q 233.7 169.9 233.45 170.08 Q 233.19 170.26 232.66 170.15 L 231.51 169.9 Q 231 169.79 230.5 169.5 Q 230 169.21 229.45 168.45 Q 228.9 167.69 228.25 166.19 Q 227.6 164.69 226.77 162.15 Q 226.07 159.99 225.66 158.72 Q 225.24 157.44 225.02 156.79 Q 224.79 156.13 224.69 155.87 Q 224.58 155.6 224.5 155.46 Z M 231.35 174.2 L 232 171.72 L 242.03 174.34 L 241.39 176.82 Z M 244.36 172.81 Q 244.25 173.16 244.08 173.25 Q 243.9 173.34 243.56 173.24 L 241.22 172.52 Q 240.89 172.42 240.79 172.24 Q 240.69 172.06 240.8 171.71 L 245.35 156.93 Q 245.56 156.24 245.93 156 Q 246.3 155.77 246.97 155.97 L 248.06 156.31 Q 248.65 156.49 249.14 156.81 Q 249.62 157.13 250.05 157.87 Q 250.48 158.6 250.93 159.99 Q 251.37 161.39 251.89 163.72 Q 252.4 165.95 252.71 167.28 Q 253.02 168.61 253.2 169.32 Q 253.38 170.03 253.48 170.34 Q 253.58 170.65 253.65 170.85 L 256.68 161 Q 256.78 160.67 256.94 160.52 Q 257.68 159.91 258.83 159.33 Q 259.05 159.24 259.16 159.28 Q 259.29 159.32 259.4 159.5 Q 259.74 160.1 259.95 160.6 Q 260.16 161.1 260.29 161.55 Q 260.34 161.77 260.24 162.1 L 255.96 175.99 Q 255.8 176.52 255.53 176.68 Q 255.26 176.84 254.74 176.68 L 253.62 176.33 Q 253.12 176.18 252.64 175.85 Q 252.17 175.52 251.69 174.71 Q 251.21 173.91 250.69 172.36 Q 250.17 170.8 249.57 168.2 Q 249.06 165.99 248.76 164.68 Q 248.45 163.38 248.29 162.71 Q 248.12 162.04 248.04 161.76 Q 247.96 161.49 247.89 161.34 Z M 264.55 174.11 Q 264.25 174 264.1 173.78 Q 263.94 173.55 263.74 173.17 Q 263.54 172.78 263.32 172.25 Q 263.24 172.04 263.29 171.91 Q 263.33 171.78 263.53 171.67 Q 264.53 171.13 265.26 170.96 Q 265.43 170.92 265.68 171.01 Q 266.46 171.3 267.24 170.92 Q 268.02 170.54 268.47 169.23 Q 268.98 167.81 268.5 167 Q 268.02 166.19 266.84 165.76 L 266.29 165.56 Q 265.53 165.28 265.14 165.5 Q 264.75 165.73 264.46 166.51 L 260.25 178.08 Q 260.12 178.42 259.93 178.5 Q 259.74 178.58 259.4 178.46 L 256.95 177.57 Q 256.61 177.44 256.51 177.26 Q 256.42 177.07 256.54 176.73 L 261.19 163.96 Q 261.61 162.82 262.07 162.22 Q 262.52 161.63 263.24 161.56 Q 263.96 161.49 265.14 161.92 L 267.87 162.91 Q 271.17 164.11 272.28 165.98 Q 273.39 167.85 272.42 170.51 Q 271.7 172.5 270.41 173.46 Q 269.12 174.42 267.57 174.54 Q 266.03 174.65 264.55 174.11 Z M 270.78 182.14 Q 270.64 182.48 270.46 182.56 Q 270.27 182.63 269.95 182.5 L 267.69 181.55 Q 267.37 181.41 267.29 181.23 Q 267.21 181.04 267.35 180.7 L 273.33 166.44 Q 273.61 165.78 274 165.58 Q 274.39 165.38 275.04 165.65 L 276.09 166.09 Q 276.66 166.33 277.11 166.7 Q 277.56 167.06 277.92 167.84 Q 278.28 168.61 278.58 170.04 Q 278.89 171.47 279.18 173.85 Q 279.46 176.11 279.64 177.47 Q 279.81 178.83 279.92 179.55 Q 280.03 180.27 280.1 180.59 Q 280.17 180.91 280.22 181.11 L 284.21 171.61 Q 284.34 171.29 284.51 171.16 Q 285.31 170.62 286.51 170.16 Q 286.74 170.09 286.85 170.14 Q 286.97 170.19 287.06 170.39 Q 287.34 171.01 287.5 171.53 Q 287.66 172.06 287.74 172.52 Q 287.77 172.74 287.64 173.05 L 282.01 186.46 Q 281.8 186.97 281.52 187.1 Q 281.24 187.23 280.73 187.02 L 279.65 186.57 Q 279.17 186.36 278.73 185.99 Q 278.29 185.61 277.89 184.76 Q 277.49 183.91 277.13 182.32 Q 276.77 180.72 276.42 178.08 Q 276.14 175.83 275.96 174.49 Q 275.78 173.16 275.69 172.48 Q 275.59 171.8 275.53 171.52 Q 275.48 171.23 275.43 171.08 Z" transform="matrix(1, 0, 0, 1, 61.32223, 53.583331)" style="fill: rgb(20, 83, 131); stroke: rgb(80, 116, 218); opacity: 0.7;"/>
</svg>